HIERARCHY
ROOT Hips
{
    OFFSET   0.000000   0.000000   0.000000
    CHANNELS 6 Xposition Yposition Zposition Zrotation Xrotation Yrotation
    JOINT Chest
    {
        OFFSET   0.000000   8.007240   0.000000
        CHANNELS 3 Zrotation Xrotation Yrotation
        JOINT Chest2
        {
            OFFSET   0.000000  22.077100   0.000000
            CHANNELS 3 Zrotation Xrotation Yrotation
            JOINT Neck
            {
                OFFSET   0.000000  23.254800   0.000000
                CHANNELS 3 Zrotation Xrotation Yrotation
                JOINT Head
                {
                    OFFSET   0.000000  14.370000   1.956600
                    CHANNELS 3 Zrotation Xrotation Yrotation
                    End Site
                    {
                        OFFSET   0.000000  19.566000   0.000000
                    }
                }
            }
            JOINT LeftCollar
            {
                OFFSET   3.911900  19.017000  -0.467064
                CHANNELS 3 Zrotation Xrotation Yrotation
                JOINT LeftShoulder
                {
                    OFFSET  10.383700   0.000000   0.000000
                    CHANNELS 3 Zrotation Xrotation Yrotation
                    JOINT LeftElbow
                    {
                        OFFSET  26.662100   0.001476   0.000517
                        CHANNELS 3 Zrotation Xrotation Yrotation
                        JOINT LeftWrist
                        {
                            OFFSET  28.869000  -0.000025  -0.000106
                            CHANNELS 3 Zrotation Xrotation Yrotation
                            JOINT LeftFinger0
                            {
                                OFFSET   2.044660  -2.323460   3.252850
                                CHANNELS 3 Zrotation Xrotation Yrotation
                                JOINT LeftFinger01
                                {
                                    OFFSET   3.088130   0.000000   0.000000
                                    CHANNELS 3 Zrotation Xrotation Yrotation
                                    JOINT LeftFinger02
                                    {
                                        OFFSET   2.639460   0.000000   0.000000
                                        CHANNELS 3 Zrotation Xrotation Yrotation
                                        End Site
                                        {
                                            OFFSET   2.582190   0.000000   0.000000
                                        }
                                    }
                                }
                            }
                            JOINT LeftFinger1
                            {
                                OFFSET   8.364480   0.000000   3.252850
                                CHANNELS 3 Zrotation Xrotation Yrotation
                                JOINT LeftFinger11
                                {
                                    OFFSET   4.646930   0.000000   0.000000
                                    CHANNELS 3 Zrotation Xrotation Yrotation
                                    JOINT LeftFinger12
                                    {
                                        OFFSET   2.323460   0.000000   0.000000
                                        CHANNELS 3 Zrotation Xrotation Yrotation
                                        End Site
                                        {
                                            OFFSET   2.273050   0.000000   0.000000
                                        }
                                    }
                                }
                            }
                            JOINT LeftFinger2
                            {
                                OFFSET   8.364490   0.000015   1.078090
                                CHANNELS 3 Zrotation Xrotation Yrotation
                                JOINT LeftFinger21
                                {
                                    OFFSET   5.111620   0.000000   0.000000
                                    CHANNELS 3 Zrotation Xrotation Yrotation
                                    JOINT LeftFinger22
                                    {
                                        OFFSET   2.788160   0.000016   0.000000
                                        CHANNELS 3 Zrotation Xrotation Yrotation
                                        End Site
                                        {
                                            OFFSET   2.727660   0.000000   0.000000
                                        }
                                    }
                                }
                            }
                            JOINT LeftFinger3
                            {
                                OFFSET   7.899780   0.000017  -1.078090
                                CHANNELS 3 Zrotation Xrotation Yrotation
                                JOINT LeftFinger31
                                {
                                    OFFSET   4.646930   0.000000   0.000000
                                    CHANNELS 3 Zrotation Xrotation Yrotation
                                    JOINT LeftFinger32
                                    {
                                        OFFSET   2.323470   0.000000   0.000000
                                        CHANNELS 3 Zrotation Xrotation Yrotation
                                        End Site
                                        {
                                            OFFSET   2.273050   0.000000   0.000000
                                        }
                                    }
                                }
                            }
                            JOINT LeftFinger4
                            {
                                OFFSET   7.435090   0.000000  -3.252850
                                CHANNELS 3 Zrotation Xrotation Yrotation
                                JOINT LeftFinger41
                                {
                                    OFFSET   3.717550   0.000000   0.000000
                                    CHANNELS 3 Zrotation Xrotation Yrotation
                                    JOINT LeftFinger42
                                    {
                                        OFFSET   1.858770   0.000000   0.000000
                                        CHANNELS 3 Zrotation Xrotation Yrotation
                                        End Site
                                        {
                                            OFFSET   1.818440   0.000000   0.000000
                                        }
                                    }
                                }
                            }
                        }
                    }
                }
            }
            JOINT RightCollar
            {
                OFFSET  -3.911900  19.017000  -0.467063
                CHANNELS 3 Zrotation Xrotation Yrotation
                JOINT RightShoulder
                {
                    OFFSET -10.383700   0.000019   0.000000
                    CHANNELS 3 Zrotation Xrotation Yrotation
                    JOINT RightElbow
                    {
                        OFFSET -26.662100   0.001175   0.000102
                        CHANNELS 3 Zrotation Xrotation Yrotation
                        JOINT RightWrist
                        {
                            OFFSET -28.869000   0.000016  -0.000079
                            CHANNELS 3 Zrotation Xrotation Yrotation
                            JOINT RightFinger0
                            {
                                OFFSET  -2.044660  -2.323490   3.252850
                                CHANNELS 3 Zrotation Xrotation Yrotation
                                JOINT RightFinger01
                                {
                                    OFFSET  -3.088140   0.000000   0.000000
                                    CHANNELS 3 Zrotation Xrotation Yrotation
                                    JOINT RightFinger02
                                    {
                                        OFFSET  -2.639460   0.000000   0.000000
                                        CHANNELS 3 Zrotation Xrotation Yrotation
                                        End Site
                                        {
                                            OFFSET  -2.582190   0.000000   0.000000
                                        }
                                    }
                                }
                            }
                            JOINT RightFinger1
                            {
                                OFFSET  -8.364480   0.000000   3.252850
                                CHANNELS 3 Zrotation Xrotation Yrotation
                                JOINT RightFinger11
                                {
                                    OFFSET  -4.646930   0.000000   0.000000
                                    CHANNELS 3 Zrotation Xrotation Yrotation
                                    JOINT RightFinger12
                                    {
                                        OFFSET  -2.323470   0.000000   0.000000
                                        CHANNELS 3 Zrotation Xrotation Yrotation
                                        End Site
                                        {
                                            OFFSET  -2.273050   0.000000   0.000000
                                        }
                                    }
                                }
                            }
                            JOINT RightFinger2
                            {
                                OFFSET  -8.364480   0.000000   1.078090
                                CHANNELS 3 Zrotation Xrotation Yrotation
                                JOINT RightFinger21
                                {
                                    OFFSET  -5.111620   0.000000   0.000000
                                    CHANNELS 3 Zrotation Xrotation Yrotation
                                    JOINT RightFinger22
                                    {
                                        OFFSET  -2.788160   0.000000   0.000000
                                        CHANNELS 3 Zrotation Xrotation Yrotation
                                        End Site
                                        {
                                            OFFSET  -2.727660   0.000000   0.000000
                                        }
                                    }
                                }
                            }
                            JOINT RightFinger3
                            {
                                OFFSET  -7.899780   0.000000  -1.078090
                                CHANNELS 3 Zrotation Xrotation Yrotation
                                JOINT RightFinger31
                                {
                                    OFFSET  -4.646930   0.000000   0.000000
                                    CHANNELS 3 Zrotation Xrotation Yrotation
                                    JOINT RightFinger32
                                    {
                                        OFFSET  -2.323470   0.000000   0.000000
                                        CHANNELS 3 Zrotation Xrotation Yrotation
                                        End Site
                                        {
                                            OFFSET  -2.273050   0.000000   0.000000
                                        }
                                    }
                                }
                            }
                            JOINT RightFinger4
                            {
                                OFFSET  -7.435090   0.000000  -3.252850
                                CHANNELS 3 Zrotation Xrotation Yrotation
                                JOINT RightFinger41
                                {
                                    OFFSET  -3.717550   0.000000   0.000000
                                    CHANNELS 3 Zrotation Xrotation Yrotation
                                    JOINT RightFinger42
                                    {
                                        OFFSET  -1.858770   0.000000   0.000000
                                        CHANNELS 3 Zrotation Xrotation Yrotation
                                        End Site
                                        {
                                            OFFSET  -1.818440   0.000000   0.000000
                                        }
                                    }
                                }
                            }
                        }
                    }
                }
            }
        }
    }
    JOINT LeftHip
    {
        OFFSET   9.783040   0.000000   0.000000
        CHANNELS 3 Zrotation Xrotation Yrotation
        JOINT LeftKnee
        {
            OFFSET   0.000032 -41.789100  -0.002222
            CHANNELS 3 Zrotation Xrotation Yrotation
            JOINT LeftAnkle
            {
                OFFSET   0.000087 -41.133200  -0.000135
                CHANNELS 3 Zrotation Xrotation Yrotation
                JOINT LeftToe
                {
                    OFFSET   0.000000  -6.358960  14.674500
                    CHANNELS 3 Zrotation Xrotation Yrotation
                    End Site
                    {
                        OFFSET   0.000000   0.000000   3.913200
                    }
                }
            }
        }
    }
    JOINT RightHip
    {
        OFFSET  -9.783040   0.000000   0.000000
        CHANNELS 3 Zrotation Xrotation Yrotation
        JOINT RightKnee
        {
            OFFSET   0.000047 -41.789100  -0.000896
            CHANNELS 3 Zrotation Xrotation Yrotation
            JOINT RightAnkle
            {
                OFFSET  -0.000117 -41.133300  -0.000248
                CHANNELS 3 Zrotation Xrotation Yrotation
                JOINT RightToe
                {
                    OFFSET   0.000000  -6.358970  14.674500
                    CHANNELS 3 Zrotation Xrotation Yrotation
                    End Site
                    {
                        OFFSET   0.000000   0.000000   3.913200
                    }
                }
            }
        }
    }
}
MOTION
Frames: 4
Frame Time:   0.016667
 -0.630252  89.597100   2.016840  -2.027490   2.025410   2.291780   0.704175  -0.119764  -1.116050   1.405880  -0.253200  -2.230530   0.669720  -0.043376  -0.004134   1.103980  -0.088006   3.089480  -2.784660   4.097870  -0.986835 -73.464200  14.474500  -3.729720  -1.974100  -3.201760  -6.971580   3.596450  -9.401880   6.453990  37.635900  26.462600 -61.148300 -27.751900  -0.006731  -0.003461  -8.872540  -0.002551  -0.004264 -28.207400   4.851770  -8.961610 -23.389900  -0.000689  -0.000733 -16.372900  -0.000477  -0.000562 -27.642400   1.527150  -2.912810 -30.109100  -0.003971  -0.002333 -20.052600  -0.002143  -0.006035 -27.346600  -1.152160   2.219970 -28.620800  -0.003208  -0.005312 -19.061500  -0.001555  -0.003953 -31.259000  -1.296440   2.136400 -46.924900  -0.002789  -0.000922 -31.252000   0.002783  -0.007049   2.021520   1.009780   8.240570  78.585500   5.050250  -2.030230   0.177909  -3.627290   8.456860 -12.496000  -8.740530  -1.684310 -37.044000  30.567900  66.582200  30.729300   0.005791  -0.003368  10.364600   0.003287  -0.002239  28.325200   5.166590   9.509500  23.526100  -0.001197   0.002575  16.468300  -0.007951   0.001954  27.694900   4.192870   7.951860  31.934200  -0.006602   0.004042  21.268100   0.000522   0.002652  28.074500   2.766540   5.169900  33.432600  -0.000446   0.009523  22.266100   0.006402   0.008231  33.679200   0.536203   0.811445  50.524500  -0.001182   0.003509  33.649300   0.003813   0.001609   2.375420   1.224210  -0.396349   1.107210   0.076495   0.359557  -1.039670  -2.579350  -1.757860   0.000000   0.000000   0.000000   1.286120  -2.622580  -4.073940   0.944500   4.377930   1.197220  -2.576560  -3.254300   0.102407   0.000000   0.000000  -0.000000
 -0.630248  89.597100   2.011340  -2.027180   2.018640   2.291760   0.704175  -0.111316  -1.116040   1.406050  -0.236309  -2.230640   0.669750  -0.049944  -0.004317   1.104040  -0.101453   3.099990  -2.797840   4.087150  -0.986868 -73.453800  14.479600  -3.730050  -1.975480  -3.211540  -6.971640   3.588950  -9.401240   6.449990  37.630300  26.472500 -61.174300 -27.760700  -0.006738  -0.003506  -8.872450  -0.002551  -0.004250 -28.216600   4.851850  -8.961510 -23.397200  -0.000688  -0.000732 -16.378000  -0.000475  -0.000561 -27.642400   1.527160  -2.912810 -30.118500  -0.003970  -0.002330 -20.058900  -0.002143  -0.006034 -27.346600  -1.152250   2.220920 -28.623600  -0.003208  -0.005310 -19.063400  -0.001554  -0.003951 -31.261300  -1.296480   2.137340 -46.928300  -0.002788  -0.000921 -31.254300   0.002782  -0.007048   2.014970   0.999957   8.262190  78.585100   5.038950  -2.030040   0.181215  -3.621250   8.458650 -12.497800  -8.742020  -1.684340 -37.043100  30.573400  66.573400  30.741800   0.005794  -0.003366  10.370900   0.003284  -0.002253  28.321600   5.166720   9.500410  23.523300  -0.001196   0.002573  16.466300  -0.007950   0.001953  27.695700   4.192980   7.940760  31.926300  -0.006601   0.004042  21.262900   0.000523   0.002653  28.075600   2.760450   5.158500  33.425100  -0.000446   0.009523  22.261100   0.006401   0.008231  33.674700   0.536205   0.811485  50.517800  -0.001180   0.003508  33.644800   0.003810   0.001608   2.375760   1.252610  -0.395898   1.107250   0.024358   0.360042  -1.038720  -2.552420  -1.757850  -0.000000   0.000000  -0.000000   1.286330  -2.615370  -4.074090   0.944948   4.372510   1.197350  -2.576530  -3.254030   0.103274  -0.000000   0.000000   0.000000
 -0.630223  89.597100   2.002940  -2.026660   2.006950   2.291730   0.704207  -0.098088  -1.116010   1.406380  -0.209859  -2.230740   0.669961  -0.059759  -0.004500   1.104470  -0.121385   3.115450  -2.817300   4.073810  -0.987175 -73.434200  14.487700  -3.730430  -1.977330  -3.225140  -6.971720   3.574430  -9.396370   6.443190  37.624800  26.482400 -61.200300 -27.769500  -0.006745  -0.003551  -8.872320  -0.002551  -0.004235 -28.225800   4.851930  -8.961330 -23.404500  -0.000685  -0.000728 -16.383100  -0.000472  -0.000558 -27.642400   1.527190  -2.912810 -30.128000  -0.003969  -0.002325 -20.065200  -0.002141  -0.006031 -27.346600  -1.152420   2.223210 -28.626400  -0.003207  -0.005305 -19.065200  -0.001552  -0.003947 -31.263600  -1.296550   2.139640 -46.931700  -0.002785  -0.000920 -31.256500   0.002777  -0.007044   2.006610   0.985600   8.294350  78.584600   5.027650  -2.029850   0.187044  -3.615200   8.460450 -12.499700  -8.744770  -1.684410 -37.038600  30.577500  66.562700  30.760700   0.005798  -0.003364  10.380400   0.003280  -0.002267  28.318200   5.166910   9.488030  23.520500  -0.001193   0.002569  16.464300  -0.007947   0.001950  27.696400   4.193090   7.929660  31.918400  -0.006597   0.004041  21.257700   0.000526   0.002655  28.077100   2.751950   5.142940  33.417700  -0.000446   0.009521  22.256200   0.006398   0.008227  33.670200   0.536211   0.811558  50.511100  -0.001176   0.003507  33.640300   0.003804   0.001604   2.376180   1.281020  -0.395446   1.107290  -0.027779   0.360526  -1.036970  -2.525500  -1.757860  -0.000000   0.000000  -0.000000   1.286530  -2.608160  -4.074390   0.945396   4.367100   1.197480  -2.576460  -3.253710   0.105009   0.000000   0.000000  -0.000000
 -0.627412  89.597000   1.997970  -2.026200   1.996180   2.291680   0.704311  -0.089100  -1.115740   1.406760  -0.191876  -2.230320   0.672934  -0.066176  -0.004467   1.107710  -0.133880   3.124320  -2.826820   4.071100  -0.993732 -73.412300  14.494300  -3.729250  -1.978010  -3.230930  -6.971790   3.553130  -9.373910   6.435890  37.629100  26.477300 -61.186700 -27.762400  -0.006746  -0.003529  -8.872260  -0.002541  -0.004241 -28.213700   4.851920  -8.961090 -23.394800  -0.000680  -0.000721 -16.376300  -0.000469  -0.000554 -27.637400   1.527240  -2.908850 -30.104600  -0.003967  -0.002320 -20.049700  -0.002138  -0.006024 -27.346400  -1.152650   2.227500 -28.606300  -0.003205  -0.005299 -19.051800  -0.001549  -0.003939 -31.251300  -1.296660   2.143970 -46.913200  -0.002780  -0.000919 -31.244200   0.002768  -0.007038   2.005330   0.978893   8.312520  78.584800   5.035260  -2.029910   0.190977  -3.616700   8.448730 -12.498900  -8.748300  -1.684490 -37.020800  30.564000  66.568500  30.773500   0.005800  -0.003397  10.386700   0.003277  -0.002267  28.328800   5.169620   9.483990  23.529200  -0.001188   0.002565  16.470400  -0.007945   0.001945  27.696000   4.195630   7.929930  31.937900  -0.006591   0.004035  21.270700   0.000537   0.002654  28.077600   2.748380   5.137730  33.436400  -0.000441   0.009517  22.268700   0.006395   0.008219  33.681400   0.536223   0.811652  50.528000  -0.001172   0.003503  33.651600   0.003797   0.001598   2.376140   1.251970  -0.395503   1.107270   0.045056   0.359553  -1.035280  -2.559020  -1.757970  -0.000000   0.000000   0.000000   1.286580  -2.614880  -4.074790   0.945122   4.382230   1.195160  -2.576380  -3.253670   0.106960   0.000000   0.000000   0.000000
